<?xml version="1.0" encoding="UTF-8"?>
<svg id="Ebene_1" data-name="Ebene 1" xmlns="http://www.w3.org/2000/svg" viewBox="0 0 666.83 666.7">
  <defs>
    <style>
      .cls-1 {
        fill: #fff;
        stroke-width: 0px;
      }
    </style>
  </defs>
  <path class="cls-1" d="m233.33,400.03c73.64,0,133.33-59.7,133.33-133.33s-59.7-133.33-133.33-133.33-133.33,59.7-133.33,133.33,59.7,133.33,133.33,133.33Zm0-200c36.82,0,66.67,29.85,66.67,66.67s-29.85,66.67-66.67,66.67-66.67-29.85-66.67-66.67,29.85-66.67,66.67-66.67Zm-100,233.33h200c73.64,0,133.33,59.7,133.33,133.33v66.67c0,18.41-14.92,33.33-33.33,33.33s-33.33-14.92-33.33-33.33v-66.67c0-36.82-29.85-66.67-66.67-66.67h-200c-36.82,0-66.67,29.85-66.67,66.67v66.67c0,18.41-14.92,33.33-33.33,33.33S0,651.78,0,633.37v-66.67c0-73.64,59.7-133.33,133.33-133.33Zm382.07-166.67c.14,53.2-21.01,104.25-58.73,141.77-13.24,12.79-34.34,12.42-47.13-.82-12.48-12.92-12.48-33.4,0-46.31,52.26-52.26,52.26-137,0-189.27-13.24-12.79-13.61-33.89-.82-47.13s33.89-13.61,47.13-.82c.28.27.55.54.82.82,37.72,37.52,58.87,88.56,58.73,141.77Zm-6.03,256.67c-12.79-13.24-12.44-34.34.8-47.13,115.63-109.94,120.24-292.81,10.3-408.44-3.35-3.52-6.78-6.95-10.3-10.3-13.28-12.84-13.64-34.02-.8-47.3,12.84-13.28,34.02-13.64,47.3-.8h0c142.1,135.53,147.43,360.6,11.89,502.71-3.87,4.06-7.84,8.02-11.89,11.89-13.24,12.79-34.34,12.44-47.13-.8l-.17.17Z"/>
</svg>