<?xml version="1.0" encoding="UTF-8"?>
<svg id="Ebene_1" data-name="Ebene 1" xmlns="http://www.w3.org/2000/svg" viewBox="0 0 666.67 666.67">
  <defs>
    <style>
      .cls-1 {
        fill: none;
        stroke: #fff;
        stroke-linecap: round;
        stroke-linejoin: round;
        stroke-width: 66.67px;
      }
    </style>
  </defs>
  <path class="cls-1" d="m166.67,33.33v66.67M500,33.33v66.67M140,633.33h386.67c37.34,0,56.01,0,70.27-7.27,12.54-6.39,22.74-16.59,29.13-29.13,7.27-14.26,7.27-32.93,7.27-70.27V206.67c0-37.34,0-56.01-7.27-70.27-6.39-12.54-16.59-22.74-29.13-29.13-14.26-7.27-32.93-7.27-70.27-7.27H140c-37.34,0-56.01,0-70.27,7.27-12.54,6.39-22.74,16.59-29.13,29.13-7.27,14.26-7.27,32.93-7.27,70.27v320c0,37.34,0,56.01,7.27,70.27,6.39,12.54,16.59,22.74,29.13,29.13,14.26,7.27,32.93,7.27,70.27,7.27Zm60-150l67.5-13.5c5.88-1.18,8.83-1.77,11.57-2.84,2.44-.95,4.75-2.19,6.9-3.69,2.42-1.69,4.54-3.81,8.79-8.05l138.58-138.58c18.41-18.41,18.41-48.26,0-66.67-18.41-18.41-48.26-18.41-66.67,0l-138.58,138.58c-4.24,4.25-6.37,6.37-8.05,8.79-1.5,2.14-2.74,4.46-3.69,6.9-1.08,2.74-1.66,5.69-2.84,11.57l-13.5,67.5Z"/>
</svg>